PathFileType	4	(X/Y/Z)	C:/Users/beibeiliu/ov580/test_trc/User3\sequence.30_training_dense_right.trc
DataRate	CameraRate	NumFrames	NumMarkers	Units	OrigDataRate	OrigDataStartFrame	OrigNumFrames
120	120	14	19	mm	120	60	239
Frame#	Time	ThumbCMC			ThumbMCP			ThumbIP			ThumbTip			IndexMCP			IndexPIP			IndexTip			MiddleMCP			MiddlePIP			MiddleTip			RingMCP			RingPIP			RingTip			PinkyMCP			PinkyPIP			PinkyTip			BackHand1			BackHand2			BackHand3	
		X0	Y0	Z0	X1	Y1	Z1	X2	Y2	Z2	X3	Y3	Z3	X4	Y4	Z4	X5	Y5	Z5	X6	Y6	Z6	X7	Y7	Z7	X8	Y8	Z8	X9	Y9	Z9	X10	Y10	Z10	X11	Y11	Z11	X12	Y12	Z12	X13	Y13	Z13	X14	Y14	Z14	X15	Y15	Z15	X16	Y16	Z16	X17	Y17	Z17	X18	Y18	Z18	
59	0.491667	199.678	21.1237	12.6331	171.571	42.3862	-6.33023	143.291	32.8268	-19.2622	124.025	19.7421	-20.1428	187.57	3.83866	-59.2618	173.61	9.17283	-82.8053	155.064	16.9695	-101.408	173.001	-20.2726	-60.484	161.616	-18.3586	-86.7809	146.679	-10.949	-110.916	158.787	-29.8536	-45.4249	145.285	-30.202	-67.8396	129.487	-25.7551	-87.4954	139.172	-35.0855	-20.3538	119.155	-30.3863	-33.0192	102.116	-18.1682	-44.33	183.365	-35.3931	-3.13931	196.394	-39.5601	28.557	212.237	-16.7518	4.26014	
60	0.5	202.683	24.0328	14.3048	173.605	37.9049	-5.48334	144.873	35.2193	-19.938	123.251	17.0176	-20.3474	184.879	1.94353	-61.0555	172.628	13.0615	-85.7798	156.906	22.7677	-104.038	175.26	-17.6265	-57.6084	164.394	-13.0843	-85.163	141.922	-7.6268	-113.961	156.623	-28.6495	-47.9832	144.981	-26.9694	-67.4183	128.728	-22.6271	-89.7906	137.039	-33.246	-19.5372	120.725	-26.9077	-37.5341	101.081	-25.9841	-45.4185	182.2	-37.1297	-1.48653	193.995	-40.1129	27.1355	210.789	-17.0137	0.794348	
61	0.508333	201.946	22.4144	11.3568	174.938	42.597	-6.52829	144.607	34.3855	-21.3104	130.077	12.8195	-16.314	188.215	4.33059	-57.2178	171.844	11.5959	-83.7916	160.759	24.3633	-100.802	171.625	-17.8767	-55.9375	163.294	-11.191	-86.972	146.382	-2.06784	-112.238	159.257	-24.2392	-46.647	148.235	-24.5058	-66.6401	131.097	-21.1017	-88.6805	138.068	-30.4968	-24.4344	121.884	-29.0714	-33.4762	102.352	-27.2989	-52.7625	180.08	-34.9241	-1.93531	192.192	-39.2049	26.3309	212.681	-14.3201	1.71239	
62	0.516667	204.878	23.6425	12.1863	177.42	40.406	-7.78922	146.62	30.0779	-23.3096	131.689	10.1757	-16.6494	187.378	4.50208	-56.8856	176.171	12.7876	-80.8167	164.304	27.3005	-103.327	172.3	-16.5266	-62.0891	164.354	-9.00443	-86.0968	144.745	-0.824413	-113.692	157.51	-24.9755	-44.3874	148.55	-22.0948	-71.503	131.074	-19.3936	-94.028	137.959	-31.4271	-20.6892	122.49	-29.2557	-37.748	106.079	-28.5717	-54.5655	182.388	-33.3043	0.220585	191.806	-39.8556	28.6736	209.755	-14.1728	1.65116	
63	0.525	206.283	24.9552	10.9265	181.143	41.2814	-9.513	151.809	34.5518	-23.7647	133.404	10.7935	-16.3296	189.348	6.62255	-58.3035	184.45	20.1829	-85.6764	167.228	29.4164	-104.45	173.679	-13.7851	-59.7424	166.162	-7.99777	-84.3406	147.235	0.359178	-115.867	158.016	-23.7545	-44.1301	147.139	-23.4302	-68.2823	133.276	-19.9259	-90.464	139.404	-29.9175	-21.1936	127.152	-28.6969	-36.3086	109.074	-33.9724	-52.0116	182.138	-33.4629	-3.82583	192.558	-37.2286	28.2207	211.943	-11.7533	1.21453	
64	0.533333	210.47	23.4644	16.3877	187.628	44.5863	-11.9914	159.817	42.7344	-23.6103	139.42	19.6355	-19.3703	195.938	9.88581	-57.8081	187.249	22.402	-86.7744	173.958	31.0249	-105.921	178.292	-10.5965	-61.181	165.954	-7.81886	-86.0702	154.54	2.75147	-114.831	159.663	-22.9807	-45.4574	146.439	-25.3491	-71.7688	136.771	-21.2107	-90.6493	141.426	-28.9835	-23.4478	125.267	-31.8703	-37.7307	108.763	-38.1883	-49.8488	180.734	-32.7952	-4.04404	192.052	-38.2734	26.3995	211.562	-13.6975	3.54287	
65	0.541667	213.69	23.1075	13.7756	196.182	43.758	-9.05594	170.602	48.1751	-26.2924	146.918	34.6866	-25.6948	195.877	8.33844	-57.7224	186.36	17.5706	-85.577	179.815	27.2973	-105.063	174.813	-14.8048	-63.3212	167.302	-8.66337	-85.9056	156.932	1.89922	-113.872	160.561	-22.3126	-48.7363	150.182	-23.4463	-70.5909	136.852	-21.5267	-94.3648	140.263	-29.3103	-25.3037	121.714	-32.8285	-38.2864	108.808	-35.9761	-51.0471	181.808	-33.1209	-1.75744	192.734	-36.7333	26.9608	210.778	-17.3537	0.215644	
66	0.55	217.05	21.1777	12.9284	204.392	43.5798	-7.94437	181.096	53.5121	-31.002	157.177	46.6342	-34.4128	194.649	6.32707	-60.8107	193.899	15.6263	-83.8023	185.086	25.3782	-110.256	176.623	-14.5902	-59.8405	167.699	-10.1868	-86.7873	153.575	-1.46719	-116.938	157.961	-25.4614	-49.7804	146.686	-26.0481	-72.1586	135.558	-22.8896	-92.3308	139.783	-29.9506	-23.9829	124.852	-30.6716	-35.0002	102.788	-34.7042	-49.0216	179.182	-35.9791	-5.17017	189.68	-38.8805	24.457	211.255	-17.3739	2.90225	
67	0.558333	220.309	18.7478	13.2778	209.894	40.854	-8.48199	191.855	52.9753	-31.1849	173.281	60.3274	-42.4736	196.336	2.36133	-60.0439	195.977	11.4923	-85.3137	188.929	15.6721	-109.579	177.473	-14.4622	-63.9029	166.948	-12.6269	-85.9372	154.204	-4.84454	-113.771	158.286	-26.3193	-44.2344	147.575	-25.4837	-67.8563	132.232	-21.803	-90.3589	137.339	-30.1769	-21.2747	120.106	-28.1586	-39.1644	101.434	-28.3634	-47.7506	181.563	-36.1269	-1.80813	189.861	-43.0709	27.7083	213.163	-18.4601	0.00181647	
68	0.566667	220.515	15.7214	13.7617	213.717	35.8215	-6.28023	207.607	57.1845	-31.6224	194.098	67.1432	-47.4943	197.913	-2.01804	-57.0607	197.197	1.69533	-82.5572	197.89	7.26598	-107.792	174.075	-19.6502	-63.3098	165.128	-13.9874	-85.3279	152.14	-4.68998	-113.913	155.01	-26.7226	-45.4864	145.186	-22.1072	-67.9993	128.542	-15.1214	-92.2277	135.914	-27.0217	-23.3605	121.734	-21.9085	-34.6184	99.007	-15.9145	-49.6517	182.356	-36.7724	-1.5133	188.202	-42.7784	25.0749	209.023	-23.4751	1.67583	
69	0.575	217.713	10.1191	10.7829	216.061	30.9112	-7.46644	215.516	50.865	-34.2546	210.54	64.4056	-46.7331	201.997	-5.04275	-60.6085	201.978	-3.05739	-83.3305	202.346	-2.87055	-106.718	174.943	-18.823	-61.3485	165.361	-11.5242	-86.0852	145.964	-1.15716	-111.483	153.978	-23.5966	-44.1323	142.305	-15.6488	-65.7542	120.171	-5.89641	-84.7963	134.984	-22.7543	-25.7557	117.052	-16.8749	-30.8176	99.3501	-6.35246	-42.5105	177.781	-39.7475	-3.09011	191.304	-42.1454	27.6774	212.225	-22.9985	5.33512	
70	0.583333	218.889	8.63007	13.2868	216.542	28.4736	-10.2181	223.125	47.6331	-33.6731	221.732	60.7293	-49.6261	198.188	-10.2007	-60.9359	201.809	-8.04067	-83.2777	203.705	-9.70195	-110.241	168.968	-19.4552	-58.9468	162.163	-8.07275	-83.1394	141.23	5.84873	-105.189	152.763	-18.7525	-43.91	138.452	-9.69867	-63.1125	120.979	6.22757	-79.6583	133.505	-21.531	-24.9374	115.162	-10.8433	-32.9164	102.488	-1.60447	-42.5509	175.863	-39.1127	-2.96051	187.489	-42.7075	24.7018	210.475	-27.1654	2.49105	
71	0.591667	219.192	8.24136	11.7854	221.315	26.7923	-9.26575	220.809	41.5759	-36.1082	226.693	56.6454	-53.3238	198.774	-10.3637	-57.6984	197.121	-11.4275	-83.6044	201.538	-12.257	-104.738	168.27	-14.3181	-61.3731	156.651	-3.81655	-81.1613	135.492	19.0886	-102.272	148.828	-15.9835	-42.9705	131.414	-5.35253	-56.27	114.442	15.5002	-72.8218	133.671	-21.7501	-19.468	119.281	-11.7934	-30.9696	102.649	-0.135026	-38.8884	177.734	-41.9127	0.559205	190.328	-42.912	30.5431	210.68	-24.5411	7.00218	
72	0.6	219.454	8.05053	16.0887	219.199	24.3086	-12.2716	221.178	37.4108	-37.4956	225.093	50.7446	-54.6088	195.795	-10.5793	-54.1675	196.175	-10.5669	-83.5617	196.199	-12.9259	-106.687	165.055	-12.9686	-57.7586	148.354	0.246999	-77.5661	131.987	24.297	-92.0137	149.057	-16.9308	-39.5973	131.577	-1.05987	-56.1392	110.162	16.1444	-64.3582	136.132	-23.9341	-19.0582	117.003	-11.9159	-32.0104	96.8082	-4.05389	-40.5382	178.866	-41.7295	1.25628	187.722	-44.4289	27.021	211.172	-23.2034	2.42896	
